<svg width="324" height="216" viewBox="0 0 324 216" fill="none" xmlns="http://www.w3.org/2000/svg">
<path opacity="0.1" d="M188.247 35.609C167.476 34.8929 147.693 28.2121 128.803 20.9046C109.913 13.5972 91.202 5.50346 70.9284 1.63238C57.8887 -0.857764 42.9748 -1.21259 32.4705 5.7432C22.3578 12.456 19.0907 24.0117 17.3351 34.7427C16.0129 42.8173 15.2362 51.317 18.8564 58.877C21.3725 64.1258 25.8335 68.5371 28.921 73.5653C39.6627 91.0571 32.0693 112.628 20.4322 129.707C14.9762 137.718 8.63774 145.37 4.42383 153.889C0.209928 162.408 -1.73816 172.203 1.94941 180.917C5.60167 189.547 14.3087 196.017 23.741 200.572C42.8978 209.827 65.4629 212.473 87.4823 213.976C136.21 217.294 185.195 215.858 234.051 214.417C252.133 213.886 270.291 213.346 288.078 210.562C297.956 209.015 308.152 206.56 315.325 200.633C324.427 193.112 326.683 180.376 320.582 170.946C310.351 155.123 282.07 151.195 274.91 134.217C270.975 124.871 275.015 114.463 280.738 105.797C293.01 87.202 313.579 70.8898 314.661 49.6388C315.405 35.0432 305.517 20.4252 290.228 13.5173C274.204 6.27703 251.979 7.18806 240.162 19.1721C227.982 31.4982 206.589 36.2451 188.247 35.609Z" fill="#8A93FF"/>
<g clip-path="url(#clip0_236_3)">
<path d="M164.408 61.7963L159.782 62.9849L102.786 77.6295L98.1602 78.8182C95.9147 79.3978 93.9917 80.8413 92.813 82.8319C91.6343 84.8225 91.2962 87.1977 91.873 89.4363L111.933 166.942C112.515 169.18 113.964 171.096 115.962 172.27C117.959 173.445 120.343 173.781 122.59 173.207L122.602 173.204L188.826 156.188L188.838 156.185C191.084 155.605 193.007 154.162 194.185 152.171C195.364 150.181 195.702 147.805 195.125 145.567L175.065 68.0607C174.483 65.8234 173.035 63.9073 171.037 62.7329C169.039 61.5585 166.655 61.2216 164.408 61.7963Z" fill="#F2F2F2"/>
<path d="M165.038 64.2262L159.558 65.6341L104.269 79.8403L98.7894 81.2481C97.1903 81.6609 95.8209 82.6888 94.9815 84.1064C94.1421 85.5239 93.9014 87.2153 94.3121 88.8095L114.372 166.316C114.787 167.909 115.818 169.273 117.241 170.11C118.664 170.946 120.361 171.186 121.961 170.777L121.973 170.774L188.197 153.758L188.209 153.755C189.808 153.342 191.178 152.314 192.017 150.896C192.857 149.479 193.097 147.788 192.687 146.193L172.626 68.6872C172.212 67.094 171.181 65.7295 169.758 64.8932C168.335 64.0569 166.638 63.817 165.038 64.2262V64.2262Z" fill="white"/>
<path d="M160.9 89.3249L127.399 97.9328C127.025 98.0289 126.628 97.973 126.295 97.7774C125.962 97.5817 125.721 97.2624 125.624 96.8896C125.528 96.5167 125.584 96.121 125.78 95.7894C125.977 95.4578 126.297 95.2175 126.671 95.1214L160.172 86.5135C160.547 86.4177 160.943 86.4738 161.276 86.6695C161.608 86.8652 161.849 87.1844 161.946 87.557C162.042 87.9296 161.986 88.3251 161.79 88.6566C161.594 88.9881 161.274 89.2284 160.9 89.3249V89.3249Z" fill="#F2F2F2"/>
<path d="M167.948 92.5736L128.627 102.677C128.253 102.773 127.855 102.717 127.523 102.521C127.19 102.326 126.949 102.006 126.852 101.634C126.756 101.261 126.812 100.865 127.008 100.533C127.204 100.202 127.525 99.9616 127.899 99.8654L167.22 89.7622C167.594 89.6661 167.991 89.722 168.324 89.9176C168.657 90.1133 168.898 90.4326 168.995 90.8054C169.091 91.1782 169.035 91.574 168.839 91.9056C168.642 92.2372 168.322 92.4775 167.948 92.5736V92.5736Z" fill="#F2F2F2"/>
<path d="M166.403 110.586L132.902 119.194C132.717 119.242 132.524 119.252 132.334 119.226C132.145 119.199 131.962 119.135 131.798 119.039C131.633 118.942 131.489 118.813 131.374 118.661C131.259 118.509 131.175 118.335 131.127 118.151C131.079 117.966 131.069 117.774 131.095 117.585C131.122 117.396 131.186 117.215 131.283 117.051C131.38 116.886 131.509 116.743 131.662 116.628C131.815 116.514 131.989 116.43 132.174 116.383L165.675 107.775C165.861 107.727 166.054 107.716 166.243 107.743C166.432 107.77 166.615 107.833 166.78 107.93C166.944 108.027 167.088 108.155 167.203 108.308C167.318 108.46 167.402 108.633 167.45 108.818C167.498 109.002 167.509 109.195 167.482 109.383C167.455 109.572 167.391 109.754 167.294 109.918C167.197 110.082 167.068 110.226 166.915 110.34C166.762 110.455 166.588 110.538 166.403 110.586V110.586Z" fill="#F2F2F2"/>
<path d="M173.451 113.835L134.13 123.938C133.944 123.986 133.752 123.996 133.562 123.97C133.373 123.943 133.19 123.88 133.026 123.783C132.861 123.686 132.717 123.558 132.602 123.405C132.487 123.253 132.403 123.08 132.355 122.895C132.307 122.71 132.297 122.518 132.323 122.329C132.35 122.141 132.414 121.959 132.511 121.795C132.608 121.631 132.737 121.487 132.89 121.372C133.043 121.258 133.217 121.174 133.402 121.127L172.723 111.024C173.097 110.927 173.494 110.983 173.827 111.179C174.16 111.375 174.401 111.694 174.498 112.067C174.594 112.44 174.538 112.835 174.342 113.167C174.145 113.498 173.825 113.739 173.451 113.835Z" fill="#F2F2F2"/>
<path d="M171.906 131.847L138.405 140.455C138.03 140.551 137.634 140.495 137.301 140.299C136.968 140.103 136.727 139.784 136.631 139.411C136.534 139.039 136.59 138.643 136.787 138.312C136.983 137.98 137.303 137.74 137.677 137.644L171.178 129.036C171.552 128.94 171.949 128.995 172.282 129.191C172.615 129.387 172.856 129.706 172.953 130.079C173.049 130.452 172.993 130.847 172.797 131.179C172.6 131.511 172.28 131.751 171.906 131.847Z" fill="#F2F2F2"/>
<path d="M178.953 135.096L139.632 145.199C139.447 145.247 139.254 145.258 139.064 145.231C138.875 145.205 138.692 145.141 138.528 145.044C138.363 144.948 138.218 144.819 138.103 144.667C137.988 144.515 137.904 144.341 137.856 144.156C137.809 143.972 137.798 143.779 137.825 143.59C137.851 143.402 137.915 143.22 138.013 143.056C138.11 142.891 138.239 142.748 138.392 142.633C138.545 142.519 138.719 142.435 138.905 142.388L178.226 132.285C178.6 132.188 178.997 132.244 179.33 132.44C179.663 132.636 179.904 132.955 180 133.328C180.097 133.701 180.041 134.096 179.844 134.428C179.648 134.759 179.327 135 178.953 135.096V135.096Z" fill="#F2F2F2"/>
<path d="M121.68 106.759L109.824 109.805C109.645 109.851 109.454 109.824 109.295 109.73C109.135 109.637 109.02 109.484 108.973 109.305L106.252 98.79C106.206 98.6112 106.233 98.4216 106.327 98.2626C106.421 98.1037 106.574 97.9884 106.754 97.9421L118.609 94.8959C118.789 94.85 118.979 94.8769 119.139 94.9706C119.298 95.0644 119.414 95.2174 119.46 95.3961L122.182 105.911C122.228 106.09 122.201 106.279 122.107 106.438C122.013 106.597 121.859 106.713 121.68 106.759V106.759Z" fill="#E6E6E6"/>
<path d="M127.183 128.02L115.327 131.066C115.147 131.112 114.957 131.085 114.798 130.992C114.638 130.898 114.522 130.745 114.476 130.566L111.754 120.051C111.708 119.872 111.735 119.683 111.829 119.524C111.924 119.365 112.077 119.25 112.256 119.203L124.112 116.157C124.292 116.111 124.482 116.138 124.641 116.232C124.801 116.326 124.917 116.479 124.963 116.657L127.685 127.172C127.731 127.351 127.704 127.541 127.61 127.7C127.515 127.859 127.362 127.974 127.183 128.02V128.02Z" fill="#E6E6E6"/>
<path d="M132.685 149.281L120.83 152.327C120.65 152.373 120.46 152.346 120.3 152.252C120.141 152.159 120.025 152.006 119.979 151.827L117.257 141.312C117.211 141.133 117.238 140.944 117.332 140.785C117.426 140.626 117.58 140.511 117.759 140.464L129.615 137.418C129.795 137.372 129.985 137.399 130.144 137.493C130.304 137.587 130.42 137.74 130.466 137.918L133.188 148.433C133.234 148.612 133.207 148.802 133.112 148.961C133.018 149.119 132.865 149.235 132.685 149.281V149.281Z" fill="#E6E6E6"/>
<path d="M210.613 81.443H142.198C139.878 81.4456 137.654 82.3649 136.014 83.9991C134.374 85.6334 133.451 87.8492 133.449 90.1604V170.202C133.451 172.513 134.374 174.729 136.014 176.364C137.654 177.998 139.878 178.917 142.198 178.92H210.613C212.933 178.917 215.157 177.998 216.797 176.364C218.437 174.729 219.36 172.513 219.362 170.202V90.1604C219.36 87.8492 218.437 85.6334 216.797 83.9991C215.157 82.3649 212.933 81.4456 210.613 81.443V81.443Z" fill="#E6E6E6"/>
<path d="M210.613 83.9526H142.198C140.546 83.9544 138.962 84.609 137.794 85.7728C136.626 86.9366 135.969 88.5146 135.967 90.1604V170.202C135.969 171.848 136.626 173.426 137.794 174.59C138.962 175.754 140.546 176.408 142.198 176.41H210.613C212.265 176.408 213.849 175.754 215.017 174.59C216.185 173.426 216.842 171.848 216.844 170.202V90.1604C216.842 88.5146 216.185 86.9367 215.017 85.7729C213.849 84.6091 212.265 83.9544 210.613 83.9526V83.9526Z" fill="white"/>
<path d="M206.548 183.998C212.786 190.235 222.88 190.253 229.094 184.039C235.309 177.824 235.29 167.73 229.053 161.493C222.816 155.256 212.722 155.237 206.507 161.452C200.293 167.666 200.311 177.76 206.548 183.998Z" fill="#FF7E79"/>
<path d="M224.67 176.679L220.742 172.75L224.656 168.837C225.045 168.447 225.263 167.919 225.262 167.367C225.261 166.816 225.041 166.287 224.65 165.896C224.26 165.505 223.73 165.285 223.179 165.284C222.627 165.283 222.099 165.501 221.71 165.89L217.796 169.804L213.867 165.876C213.477 165.486 212.947 165.265 212.396 165.264C211.844 165.263 211.316 165.482 210.927 165.871C210.537 166.26 210.319 166.789 210.32 167.34C210.321 167.892 210.541 168.421 210.932 168.812L214.86 172.74L210.946 176.654C210.557 177.043 210.339 177.571 210.34 178.123C210.341 178.674 210.561 179.204 210.952 179.594C211.342 179.985 211.872 180.205 212.423 180.206C212.975 180.207 213.503 179.989 213.892 179.6L217.806 175.686L221.735 179.614C222.125 180.005 222.655 180.225 223.206 180.226C223.758 180.227 224.286 180.009 224.675 179.619C225.065 179.23 225.283 178.702 225.282 178.15C225.281 177.599 225.061 177.069 224.67 176.679V176.679Z" fill="white"/>
<path d="M200.317 127.935H165.72C165.528 127.936 165.338 127.898 165.162 127.825C164.985 127.753 164.824 127.646 164.688 127.511C164.553 127.376 164.445 127.216 164.372 127.04C164.299 126.863 164.261 126.675 164.261 126.484C164.261 126.293 164.299 126.104 164.372 125.928C164.445 125.752 164.553 125.592 164.688 125.457C164.824 125.322 164.985 125.215 165.162 125.142C165.338 125.069 165.528 125.032 165.72 125.032H200.317C200.703 125.032 201.073 125.186 201.346 125.458C201.619 125.73 201.772 126.099 201.772 126.484C201.772 126.868 201.619 127.237 201.346 127.51C201.073 127.782 200.703 127.935 200.317 127.935V127.935Z" fill="#E6E6E6"/>
<path d="M206.327 132.835H165.72C165.528 132.835 165.338 132.798 165.162 132.725C164.985 132.652 164.824 132.545 164.688 132.41C164.553 132.275 164.445 132.115 164.372 131.939C164.299 131.763 164.261 131.574 164.261 131.383C164.261 131.192 164.299 131.004 164.372 130.827C164.445 130.651 164.553 130.491 164.688 130.356C164.824 130.221 164.985 130.114 165.162 130.042C165.338 129.969 165.528 129.931 165.72 129.932H206.327C206.713 129.932 207.084 130.084 207.357 130.357C207.63 130.629 207.784 130.998 207.784 131.383C207.784 131.768 207.63 132.137 207.357 132.41C207.084 132.682 206.713 132.835 206.327 132.835Z" fill="#E6E6E6"/>
<path d="M200.317 149.892H165.72C165.528 149.892 165.338 149.855 165.162 149.782C164.985 149.709 164.824 149.602 164.688 149.468C164.553 149.333 164.445 149.173 164.372 148.996C164.299 148.82 164.261 148.631 164.261 148.44C164.261 148.25 164.299 148.061 164.372 147.885C164.445 147.708 164.553 147.548 164.688 147.413C164.824 147.279 164.985 147.172 165.162 147.099C165.338 147.026 165.528 146.989 165.72 146.989H200.317C200.703 146.989 201.074 147.142 201.347 147.414C201.62 147.686 201.774 148.055 201.774 148.44C201.774 148.825 201.62 149.195 201.347 149.467C201.074 149.739 200.703 149.892 200.317 149.892V149.892Z" fill="#E6E6E6"/>
<path d="M206.327 154.792H165.72C165.528 154.792 165.338 154.754 165.162 154.682C164.985 154.609 164.824 154.502 164.688 154.367C164.553 154.232 164.445 154.072 164.372 153.896C164.299 153.72 164.261 153.531 164.261 153.34C164.261 153.149 164.299 152.96 164.372 152.784C164.445 152.608 164.553 152.448 164.688 152.313C164.824 152.178 164.985 152.071 165.162 151.998C165.338 151.925 165.528 151.888 165.72 151.888H206.327C206.518 151.888 206.708 151.925 206.885 151.998C207.062 152.071 207.223 152.178 207.358 152.313C207.494 152.448 207.601 152.608 207.674 152.784C207.748 152.96 207.785 153.149 207.785 153.34C207.785 153.531 207.748 153.72 207.674 153.896C207.601 154.072 207.494 154.232 207.358 154.367C207.223 154.502 207.062 154.609 206.885 154.682C206.708 154.754 206.518 154.792 206.327 154.792Z" fill="#E6E6E6"/>
<path d="M157.969 135.059H145.726C145.541 135.059 145.363 134.985 145.232 134.855C145.101 134.724 145.027 134.548 145.027 134.363V123.504C145.027 123.32 145.101 123.143 145.232 123.012C145.363 122.882 145.541 122.808 145.726 122.808H157.969C158.155 122.808 158.332 122.882 158.463 123.012C158.594 123.143 158.668 123.32 158.668 123.504V134.363C158.668 134.548 158.594 134.724 158.463 134.855C158.332 134.985 158.155 135.059 157.969 135.059V135.059Z" fill="#E6E6E6"/>
<path d="M157.969 157.016H145.726C145.541 157.015 145.363 156.942 145.232 156.812C145.101 156.681 145.027 156.504 145.027 156.32V145.461C145.027 145.276 145.101 145.099 145.232 144.969C145.363 144.838 145.541 144.765 145.726 144.765H157.969C158.155 144.765 158.332 144.838 158.463 144.969C158.594 145.099 158.668 145.276 158.668 145.461V156.32C158.668 156.504 158.594 156.681 158.463 156.812C158.332 156.942 158.155 157.015 157.969 157.016V157.016Z" fill="#E6E6E6"/>
<path d="M200.355 103.493H174.848C174.462 103.493 174.091 103.34 173.818 103.068C173.544 102.796 173.391 102.427 173.391 102.042C173.391 101.657 173.544 101.287 173.818 101.015C174.091 100.743 174.462 100.59 174.848 100.59H200.355C200.742 100.59 201.112 100.743 201.385 101.015C201.659 101.287 201.812 101.657 201.812 102.042C201.812 102.427 201.659 102.796 201.385 103.068C201.112 103.34 200.742 103.493 200.355 103.493Z" fill="#CCCCCC"/>
<path d="M206.365 108.393H174.848C174.657 108.393 174.467 108.355 174.29 108.282C174.114 108.209 173.953 108.102 173.818 107.967C173.682 107.833 173.575 107.673 173.502 107.496C173.429 107.32 173.391 107.132 173.391 106.941C173.391 106.75 173.429 106.562 173.502 106.385C173.575 106.209 173.682 106.049 173.818 105.914C173.953 105.78 174.114 105.673 174.29 105.6C174.467 105.527 174.657 105.489 174.848 105.489H206.365C206.752 105.489 207.122 105.642 207.395 105.914C207.669 106.187 207.822 106.556 207.822 106.941C207.822 107.326 207.669 107.695 207.395 107.967C207.122 108.24 206.752 108.393 206.365 108.393V108.393Z" fill="#CCCCCC"/>
<path d="M169.203 114.33H145.688C145.502 114.33 145.325 114.257 145.194 114.126C145.063 113.996 144.989 113.819 144.989 113.634V95.3484C144.989 95.1639 145.063 94.9869 145.194 94.8564C145.325 94.7259 145.502 94.6525 145.688 94.6523H169.203C169.388 94.6525 169.566 94.7259 169.697 94.8564C169.828 94.9869 169.901 95.1639 169.901 95.3484V113.634C169.901 113.819 169.828 113.996 169.697 114.126C169.566 114.257 169.388 114.33 169.203 114.33V114.33Z" fill="#5865FF"/>
</g>
<defs>
<clipPath id="clip0_236_3">
<rect width="142.177" height="127.139" fill="white" transform="translate(91.595 61.5191)"/>
</clipPath>
</defs>
</svg>
